<svg width="17" height="17" viewBox="0 0 17 17" fill="none" xmlns="http://www.w3.org/2000/svg">
<g clip-path="url(#clip0_30_279)">
<path fill-rule="evenodd" clip-rule="evenodd" d="M8.3999 0.716431C5.63876 0.716431 3.3999 2.96699 3.3999 5.74256V6.04011C3.3999 7.29272 2.73682 8.45513 1.65923 9.07612L1.65896 9.07628C0.985731 9.4648 0.399902 10.0228 0.399902 10.7687C0.399902 11.3357 0.743278 11.7959 1.17982 12.1418C1.62198 12.4921 2.23081 12.7855 2.93855 13.0226C4.35926 13.4986 6.29013 13.7844 8.3999 13.7844C10.5097 13.7844 12.4405 13.4986 13.8613 13.0226C14.569 12.7855 15.1778 12.4921 15.62 12.1418C16.0565 11.7959 16.3999 11.3357 16.3999 10.7687C16.3999 10.0228 15.8141 9.4648 15.1408 9.07628L15.1403 9.07597C14.0631 8.45609 13.3999 7.29292 13.3999 6.04011V5.74256C13.3999 2.96699 11.161 0.716431 8.3999 0.716431ZM4.3999 5.74256C4.3999 3.52216 6.19104 1.72166 8.3999 1.72166C10.6088 1.72166 12.3999 3.52216 12.3999 5.74256V6.04011C12.3999 7.64797 13.2505 9.14646 14.643 9.94805C15.2517 10.2994 15.3999 10.5978 15.3999 10.7687C15.3999 10.8958 15.3235 11.0968 15.001 11.3523C14.6841 11.6033 14.1946 11.8514 13.5451 12.069C12.2513 12.5025 10.4321 12.7792 8.3999 12.7792C6.36768 12.7792 4.54854 12.5025 3.25475 12.069C2.60525 11.8514 2.1157 11.6033 1.7988 11.3523C1.47628 11.0968 1.3999 10.8958 1.3999 10.7687C1.3999 10.5978 1.54807 10.2994 2.15685 9.94805C3.5491 9.1456 4.3999 7.64828 4.3999 6.04011V5.74256ZM11.15 14.9909C11.2606 14.7366 11.1451 14.4402 10.8921 14.329C10.6391 14.2179 10.3443 14.3339 10.2337 14.5883C9.92439 15.2995 9.219 15.7948 8.39984 15.7948C7.58091 15.7948 6.87607 15.2997 6.56571 14.5886C6.45475 14.3344 6.15981 14.2188 5.90694 14.3303C5.65407 14.4419 5.53902 14.7383 5.64998 14.9925C6.11361 16.0547 7.16877 16.8 8.39984 16.8C9.63068 16.8 10.6873 16.0549 11.15 14.9909Z" fill="#626D8A"/>
</g>
<path d="M14.8749 2.63873C14.8749 3.87711 13.8768 4.87745 12.6499 4.87745C11.423 4.87745 10.4249 3.87711 10.4249 2.63873C10.4249 1.40034 11.423 0.4 12.6499 0.4C13.8768 0.4 14.8749 1.40034 14.8749 2.63873Z" fill="#FF293F" stroke="white" stroke-width="0.8"/>
<defs>
<clipPath id="clip0_30_279">
<rect width="16" height="16.0836" fill="white" transform="translate(0.399902 0.716431)"/>
</clipPath>
</defs>
</svg>
